# xmcd CD database file generated by Grip 3.1.3
# 
# Track frame offsets:
#       150
#       15435
#       29027
#       46432
#       61387
#       80985
#       101325
#       115622
#       130425
#       148827
#       164167
#       185712
# 
# Disc length: 3144 seconds
# 
# Revision: 4
# Processed by: cddbd v1.4PL0 Copyright (c) Steve Scherf et al.
# Submitted via: Grip 3.1.3
# 
DISCID=b20c460c
DTITLE=William Dunker - Ey'Adon!
DYEAR=2001
DGENRE=Folk
TTITLE0=Motus èt bouche keudûwe
TTITLE1=Tchoûtèz lès tchansons
TTITLE2=Dji vou stèl-la
TTITLE3=Dijèz m'çoula!
TTITLE4=Come dit Alfrèd...
TTITLE5=Audjoûrdu
TTITLE6=Dji piè toudi m'timps...
TTITLE7=Ey'adon!
TTITLE8=Condroz and western
TTITLE9=On n'pout né yèsse pus katolike k'èl Pape
TTITLE10=Nwêr cafè, fèl cafârd
TTITLE11=El cénkième monde
EXTD=
EXTT0=
EXTT1=
EXTT2=
EXTT3=
EXTT4=
EXTT5=
EXTT6=
EXTT7=
EXTT8=
EXTT9=
EXTT10=
EXTT11=
PLAYORDER=
